<svg width="225" height="224" viewBox="0 0 225 224" fill="none" xmlns="http://www.w3.org/2000/svg">
<path d="M25.0885 92.2262L33.1709 95.7033L32.8524 97.8002L27.2385 98.3842C26.9466 98.4107 26.628 98.4107 26.2697 98.3842V98.4107C26.6413 98.5036 26.9466 98.5965 27.1854 98.7027L32.3746 100.946L32.0428 103.135L23.2969 104.091L23.6154 102.021L29.4018 101.676C29.6407 101.662 29.9725 101.676 30.3839 101.702V101.662C30.0919 101.596 29.7734 101.49 29.4283 101.344L24.0666 98.9814L24.3719 96.9508L30.2379 96.42C30.4503 96.4067 30.7555 96.4067 31.1669 96.42V96.3934C30.8617 96.3271 30.5564 96.2475 30.2512 96.128L24.8098 94.124L25.1018 92.2129L25.0885 92.2262Z" fill="#082970"/>
<path d="M29.6401 85.1113L35.3203 89.2388C36.6873 90.2342 37.2049 91.3091 36.8864 92.4505C36.7669 92.8885 36.621 93.2335 36.4352 93.4857L34.9886 93.0875C35.2009 92.8885 35.3336 92.6496 35.4132 92.3576C35.546 91.8931 35.4132 91.5082 35.0151 91.203L34.3781 90.6987L27.875 91.4684L28.4191 89.4644L32.2812 89.3582C32.52 89.3582 32.7988 89.3582 33.1173 89.4113V89.3848C32.9182 89.2919 32.6793 89.1592 32.4006 88.9866L29.1225 86.903L29.6136 85.1113H29.6401Z" fill="#082970"/>
<path d="M30.0004 81.2762C29.9075 81.5284 29.7615 81.7009 29.5492 81.8071C29.3368 81.9133 29.1378 81.9266 28.9254 81.8469C28.6998 81.7673 28.5538 81.6213 28.4742 81.409C28.3945 81.1966 28.3945 80.971 28.4874 80.7188C28.5803 80.4667 28.7263 80.2941 28.9254 80.188C29.1245 80.0818 29.3368 80.0685 29.5492 80.1482C29.7748 80.2278 29.9208 80.3738 30.0137 80.5861C30.1066 80.7985 30.0933 81.0241 30.0137 81.2762M37.4988 81.2762L35.6408 86.4123L34.9109 86.1469L32.2698 81.9398L31.3276 84.5278L30.0269 84.05L31.7788 79.2324L32.6547 79.5509L35.2161 83.5589L36.2115 80.825L37.5121 81.2895L37.4988 81.2762Z" fill="#082970"/>
<path d="M37.6712 80.4571L36.2777 79.8334C36.5697 79.6343 36.8218 79.4087 37.0342 79.1565C37.2465 78.9176 37.4058 78.6655 37.5119 78.4133C37.6447 78.1081 37.711 77.8559 37.711 77.6436C37.711 77.4312 37.6181 77.2852 37.4456 77.2189C37.3394 77.1658 37.2332 77.1658 37.1271 77.2189C37.0209 77.272 36.9147 77.3383 36.7953 77.4445C36.6891 77.5374 36.5697 77.6568 36.4635 77.7896C36.3573 77.9223 36.2379 78.0417 36.1184 78.1479C35.9326 78.3337 35.7601 78.4797 35.5876 78.6124C35.415 78.7451 35.2425 78.8247 35.07 78.8911C34.8974 78.9442 34.7116 78.9707 34.5126 78.9575C34.3268 78.9442 34.1144 78.8911 33.8888 78.7849C33.5703 78.6389 33.3447 78.4531 33.1721 78.2275C33.0129 77.9886 32.9067 77.7232 32.8669 77.4445C32.8271 77.1525 32.8404 76.8473 32.8934 76.5288C32.9598 76.2102 33.0527 75.8917 33.1987 75.5732C33.3049 75.3343 33.4376 75.0822 33.5968 74.8565C33.7428 74.6177 33.9154 74.392 34.1012 74.1797L35.4283 74.7636C35.2027 74.9229 35.0036 75.1087 34.8311 75.3343C34.6586 75.5599 34.5258 75.7855 34.4064 76.0244C34.3533 76.1439 34.3135 76.2501 34.3002 76.3562C34.2737 76.4624 34.2604 76.5686 34.2737 76.6615C34.2737 76.7544 34.3002 76.834 34.34 76.9004C34.3799 76.9667 34.4329 77.0198 34.5126 77.0596C34.6187 77.0994 34.7116 77.1127 34.8178 77.0729C34.924 77.0463 35.0169 76.98 35.1231 76.9004C35.2292 76.8207 35.3221 76.7278 35.415 76.6084C35.5212 76.5022 35.6141 76.396 35.7203 76.2899C35.9061 76.0908 36.0786 75.9315 36.2512 75.7856C36.4237 75.6396 36.6095 75.5334 36.7953 75.4538C36.9811 75.3741 37.1802 75.3476 37.3792 75.3476C37.5783 75.3476 37.8039 75.4007 38.0295 75.5068C38.3613 75.6528 38.6135 75.8519 38.7727 76.0908C38.9453 76.343 39.0515 76.6084 39.0913 76.9136C39.1311 77.2189 39.1178 77.5374 39.0514 77.8692C38.9851 78.2142 38.8656 78.546 38.7197 78.8778C38.441 79.4883 38.0959 80.0059 37.6845 80.4439" fill="#082970"/>
<path d="M42.5697 70.871L39.995 75.6753L39.3182 75.3037L37.3009 70.7648L36.0003 73.1802L34.7793 72.5299L37.208 68.0176L38.0176 68.4555L39.9818 72.7821L41.3487 70.2074L42.5697 70.871Z" fill="#082970"/>
<path d="M45.9406 65.5496L44.9851 67.0493L44.2552 66.5715H44.2419C44.5869 67.3014 44.5604 67.9915 44.1224 68.6684C43.8039 69.1727 43.4058 69.4647 42.9413 69.5709C42.4768 69.677 42.0123 69.5709 41.5345 69.2789C40.5391 68.6419 40.3533 67.6863 40.9505 66.4122L41.6539 64.8993C41.0965 64.5409 40.6187 64.6604 40.2339 65.2709C39.8357 65.8814 39.6499 66.5715 39.6632 67.3545L38.4688 66.5848C38.4953 66.2928 38.5882 65.9212 38.7475 65.4965C38.9067 65.0585 39.0792 64.6869 39.2916 64.3684C40.2339 62.9085 41.4283 62.6431 42.8882 63.5854L45.9406 65.5496ZM42.9147 65.6956L42.5697 65.4699L42.0919 66.4786C41.8265 67.036 41.8928 67.4341 42.291 67.6996C42.4768 67.819 42.6626 67.8456 42.8484 67.7925C43.0474 67.7394 43.2067 67.6067 43.3527 67.3943C43.5385 67.1023 43.5916 66.7971 43.5119 66.4786C43.4323 66.1601 43.2332 65.8946 42.9147 65.6956Z" fill="#082970"/>
<path d="M48.6339 61.3151L47.174 60.0941C47.612 60.0145 48.0234 59.8685 48.395 59.6561C48.7666 59.4438 49.0851 59.1784 49.3506 58.8599C49.5098 58.6741 49.6293 58.5015 49.7089 58.329C49.7885 58.1565 49.8416 58.0105 49.8549 57.8645C49.8682 57.7185 49.8549 57.5991 49.8151 57.4796C49.7753 57.3602 49.7089 57.2673 49.616 57.1876C49.4833 57.0815 49.3506 57.0284 49.178 57.0151C49.0188 57.0151 48.8462 57.0151 48.6472 57.0815C48.4614 57.1345 48.249 57.2142 48.0234 57.3203C47.7978 57.4265 47.5589 57.546 47.3067 57.6787C46.6697 58.0105 46.0858 58.1697 45.5814 58.1697C45.0639 58.1697 44.5861 57.9839 44.1614 57.6123C43.8163 57.3336 43.5907 57.0151 43.458 56.67C43.3253 56.325 43.2855 55.9799 43.3253 55.6083C43.3651 55.2367 43.4713 54.8784 43.6571 54.5068C43.8429 54.1352 44.0818 53.7768 44.3737 53.4318C44.6524 53.0867 44.9311 52.808 45.1966 52.5824C45.462 52.3568 45.7274 52.171 45.9929 52.0117L47.3598 53.1531C47.1873 53.2062 47.028 53.2592 46.8555 53.3389C46.683 53.4185 46.537 53.5114 46.3777 53.6176C46.2185 53.7238 46.0858 53.8299 45.953 53.9494C45.8203 54.0688 45.7009 54.1883 45.608 54.3077C45.462 54.4802 45.3558 54.6395 45.2762 54.812C45.1966 54.9713 45.1435 55.1305 45.1169 55.2633C45.1037 55.4092 45.1037 55.5287 45.1435 55.6481C45.1833 55.7676 45.2497 55.8737 45.3426 55.9534C45.4487 56.0463 45.5682 56.0994 45.7142 56.1126C45.8469 56.1259 45.9929 56.1126 46.1654 56.0728C46.3379 56.033 46.5105 55.9667 46.7228 55.8738C46.9219 55.7808 47.1475 55.6747 47.3864 55.5552C47.7182 55.3827 48.0234 55.25 48.3287 55.1438C48.6206 55.0376 48.9126 54.9846 49.1913 54.958C49.47 54.9447 49.7354 54.9713 50.0009 55.0642C50.2663 55.1571 50.5317 55.3031 50.7972 55.5287C51.1555 55.8339 51.4077 56.1657 51.5404 56.5108C51.6731 56.8558 51.7129 57.2142 51.6731 57.5725C51.6333 57.9308 51.5006 58.3024 51.3148 58.674C51.1157 59.0457 50.8768 59.404 50.5848 59.749C50.2796 60.1074 49.9743 60.4259 49.6425 60.6913C49.3108 60.9568 48.979 61.1691 48.6604 61.3018" fill="#082970"/>
<path d="M56.993 52.5965L53.1708 56.4851L52.6267 55.9409L51.9631 51.0172L50.0387 52.9681L49.0566 51.9993L52.6532 48.3496L53.3035 48.9999L53.9671 53.698L56.0109 51.6277L56.993 52.5965Z" fill="#082970"/>
<path d="M113 10.0213C56.7684 10.0213 11.0213 55.7684 11.0213 112C11.0213 168.232 56.7684 213.979 113 213.979C169.232 213.979 214.979 168.232 214.979 112C214.979 55.7684 169.232 10.0213 113 10.0213ZM113 218C54.552 218 7 170.448 7 112C7 53.552 54.552 6 113 6C171.448 6 219 53.552 219 112C219 170.448 171.448 218 113 218Z" fill="#082970"/>
<path d="M113.002 17.8002C61.0569 17.8002 18.8002 60.0569 18.8002 112.002C18.8002 163.947 61.0569 206.203 113.002 206.203C164.947 206.203 207.203 163.947 207.203 112.002C207.203 60.0569 164.947 17.8002 113.002 17.8002ZM113.002 208.619C59.7297 208.619 16.3848 165.274 16.3848 112.002C16.3848 58.7297 59.7297 15.3848 113.002 15.3848C166.274 15.3848 209.619 58.7297 209.619 112.002C209.619 165.274 166.274 208.619 113.002 208.619Z" fill="#082970"/>
<path d="M62.5017 47.7514L60.803 49.2246L57.3656 48.2292L57.3391 48.2425L59.3165 50.5119L57.8965 51.7462L52.0039 44.9511L53.424 43.7169L57.1798 48.0434L57.1931 48.0301L56.7153 44.7255L58.4008 43.2656L58.6264 46.8489L62.5017 47.7514Z" fill="#082970"/>
<path d="M65.5686 45.7117C64.7457 46.3089 63.9362 46.5478 63.1399 46.4284C62.3303 46.3089 61.6535 45.8577 61.0828 45.0614C60.4988 44.2518 60.2732 43.429 60.4325 42.6194C60.5785 41.8099 61.0828 41.1065 61.9056 40.496C62.7285 39.8988 63.5248 39.6731 64.321 39.7926C65.1173 39.912 65.7942 40.35 66.3383 41.1065C66.9355 41.9293 67.1612 42.7389 67.0152 43.5617C66.8825 44.3846 66.3914 45.0879 65.5553 45.6984M62.7019 41.6639C62.3436 41.9293 62.1578 42.2478 62.1312 42.646C62.1047 43.0309 62.264 43.4555 62.5957 43.9068C63.2859 44.8491 64.0025 45.0481 64.7723 44.4907C65.5022 43.9599 65.5155 43.2167 64.8121 42.2478C64.1485 41.3321 63.4451 41.133 62.7152 41.6639" fill="#082970"/>
<path d="M69.4728 37.5998L69.0481 38.4625L71.145 41.8335L69.5524 42.8156L68.0793 40.4267L67.6811 41.2628L66.8715 39.9622L67.2697 39.1393L64.8145 35.1711L66.407 34.1758L68.2518 37.1619L68.6632 36.3125L69.4728 37.5998Z" fill="#082970"/>
<path d="M77.2843 38.4365L75.7183 39.2726L75.3069 38.5029H75.2803C75.2405 39.3124 74.8689 39.8964 74.1655 40.268C73.6479 40.5467 73.1569 40.6131 72.7056 40.4803C72.2544 40.3476 71.8961 40.0291 71.6306 39.5381C71.0732 38.5029 71.3785 37.5739 72.5198 36.751L73.8735 35.7822C73.5683 35.1983 73.0905 35.0655 72.4535 35.4106C71.8164 35.7557 71.3121 36.26 70.9273 36.9501L70.2637 35.7026C70.4229 35.4637 70.6884 35.185 71.0467 34.8797C71.405 34.5745 71.7368 34.3356 72.0686 34.1631C73.5948 33.3535 74.776 33.7118 75.5856 35.2381L77.2843 38.4498V38.4365ZM74.5637 37.0828L74.3779 36.7245L73.4621 37.3748C72.9578 37.7331 72.8251 38.118 73.0374 38.5294C73.1303 38.7152 73.2896 38.8347 73.4754 38.8877C73.6745 38.9408 73.8868 38.901 74.0992 38.7816C74.4044 38.609 74.6035 38.3702 74.6831 38.0516C74.7627 37.7331 74.7229 37.4013 74.5504 37.0828" fill="#082970"/>
<path d="M80.8104 27.6617L79.0215 28.3711L82.1622 36.2915L83.951 35.5821L80.8104 27.6617Z" fill="#082970"/>
<path d="M91.3829 33.0853L89.6045 33.6427L88.5825 30.4178C88.3038 29.5153 87.8393 29.1702 87.189 29.3693C86.8838 29.4622 86.6582 29.6613 86.5387 29.9665C86.4193 30.2718 86.406 30.6036 86.5255 30.9619L87.5606 34.2665L85.769 34.8239L83.9375 29.0242L85.7292 28.4536L86.0211 29.3693H86.0477C86.2468 28.5199 86.7643 27.9758 87.5739 27.7236C88.8612 27.3122 89.7504 27.9094 90.2548 29.502L91.3696 33.0588L91.3829 33.0853Z" fill="#082970"/>
<path d="M95.1771 24.4196C94.925 24.3798 94.6861 24.3931 94.4737 24.4329C93.8898 24.5656 93.6642 24.9505 93.8234 25.5875L93.9694 26.2113L95.3231 25.8928L95.6284 27.2332L94.2747 27.5517L95.3364 32.1304L93.5182 32.5551L92.4565 27.9764L91.4611 28.2153L91.1426 26.8616L92.1379 26.6227L91.9654 25.8928C91.8061 25.2159 91.8991 24.6187 92.2441 24.1144C92.5892 23.5968 93.1333 23.2517 93.8898 23.0792C94.2614 22.9863 94.5799 22.9598 94.8453 22.9863L95.1771 24.4064V24.4196Z" fill="#082970"/>
<path d="M100.686 31.3074C99.691 31.4533 98.8549 31.3074 98.1913 30.8296C97.5277 30.3518 97.1296 29.6351 96.9836 28.6796C96.8376 27.6842 97.0102 26.8614 97.5145 26.2111C98.0188 25.5608 98.7885 25.1493 99.7972 25.0034C100.793 24.8574 101.615 25.0034 102.266 25.4811C102.916 25.9589 103.314 26.6623 103.46 27.578C103.606 28.5734 103.434 29.4095 102.943 30.0731C102.452 30.7367 101.695 31.1481 100.673 31.3074M99.9697 26.4234C99.5318 26.4898 99.2132 26.6888 99.0142 27.0339C98.8151 27.3657 98.762 27.8169 98.8416 28.3743C99.0142 29.529 99.5716 30.0333 100.501 29.8873C101.39 29.7546 101.748 29.091 101.562 27.9098C101.39 26.7817 100.859 26.2907 99.9564 26.4367" fill="#082970"/>
<path d="M109.018 25.8935C108.779 25.7874 108.513 25.7476 108.221 25.7741C107.81 25.8006 107.505 25.9732 107.306 26.2917C107.107 26.6102 107.014 27.0216 107.054 27.5392L107.266 30.4324L105.395 30.5651L104.943 24.5L106.815 24.3673L106.894 25.4954H106.921C107.16 24.646 107.664 24.1948 108.434 24.1417C108.633 24.1284 108.779 24.1417 108.898 24.1815L109.031 25.9068L109.018 25.8935Z" fill="#082970"/>
<path d="M120.178 30.3552L118.307 30.3021L118.4 26.8382C118.426 25.9623 118.108 25.511 117.457 25.4978C117.152 25.4978 116.887 25.6172 116.701 25.8694C116.502 26.1348 116.396 26.4533 116.382 26.8515L116.303 30.249L114.432 30.1959L114.524 26.6922C114.551 25.8428 114.246 25.3916 113.595 25.3783C113.277 25.3783 113.011 25.4845 112.812 25.7367C112.613 25.9888 112.507 26.3206 112.494 26.7586L112.414 30.1428L110.543 30.0897L110.689 24.0114L112.56 24.0644L112.534 25.0067H112.56C112.759 24.6882 113.038 24.4361 113.396 24.237C113.755 24.0379 114.14 23.945 114.551 23.9583C115.414 23.9848 115.984 24.3697 116.29 25.1394C116.767 24.3962 117.457 24.0379 118.36 24.0512C119.687 24.091 120.324 24.9138 120.284 26.5462L120.191 30.3286L120.178 30.3552Z" fill="#082970"/>
<path d="M126.991 31.3384L125.225 31.0996L125.345 30.2369H125.318C124.827 30.8607 124.177 31.1128 123.381 30.9934C122.797 30.9138 122.359 30.6881 122.067 30.3033C121.775 29.9317 121.669 29.4672 121.748 28.9097C121.908 27.7418 122.691 27.1712 124.111 27.1712H125.77C125.862 26.5209 125.544 26.136 124.841 26.0431C124.124 25.9369 123.407 26.0564 122.704 26.4014L122.89 24.9946C123.168 24.9017 123.54 24.8221 124.004 24.7823C124.469 24.7425 124.88 24.7425 125.252 24.7956C126.964 25.0344 127.707 26.0033 127.468 27.7286L126.977 31.3252L126.991 31.3384ZM125.584 28.6443L125.637 28.2329H124.522C123.912 28.2196 123.566 28.4585 123.5 28.9097C123.474 29.1221 123.513 29.3079 123.646 29.4672C123.779 29.6131 123.965 29.7193 124.217 29.7459C124.562 29.7989 124.867 29.7193 125.119 29.507C125.371 29.2946 125.517 29.0026 125.57 28.631" fill="#082970"/>
<path d="M132.27 32.3567C131.964 32.4496 131.553 32.423 130.995 32.3036C129.708 32.0249 129.204 31.2153 129.483 29.8749L130.066 27.1542L129.098 26.9419L129.39 25.5882L130.358 25.7872L130.637 24.4999L132.575 24.3672L132.19 26.1721L133.53 26.4508L133.238 27.8045L131.898 27.5125L131.394 29.9147C131.261 30.5385 131.447 30.8968 131.938 31.003C132.137 31.0428 132.349 31.0295 132.575 30.9632L132.283 32.3169L132.27 32.3567Z" fill="#082970"/>
<path d="M140.719 28.4815L136.512 34.0953C135.503 35.449 134.428 35.9534 133.273 35.6216C132.836 35.4889 132.49 35.3429 132.238 35.1571L132.65 33.7237C132.849 33.9361 133.088 34.0821 133.38 34.1617C133.844 34.2944 134.229 34.1617 134.534 33.7901L135.052 33.1531L134.362 26.6367L136.366 27.2074L136.419 31.0694C136.419 31.3083 136.406 31.587 136.352 31.8923H136.379C136.472 31.6932 136.618 31.4543 136.79 31.1889L138.927 27.9506L140.719 28.4682V28.4815Z" fill="#082970"/>
<path d="M145.672 36.872L143.576 36.0624L142.859 32.5454H142.832L141.744 35.359L139.992 34.6822L143.23 26.2812L144.982 26.9581L142.925 32.3065H142.952L145.646 30.3423L147.73 31.1519L144.664 33.0232L145.672 36.872Z" fill="#082970"/>
<path d="M148.156 38.0815L146.457 37.2984L149.018 31.7775L150.717 32.5605L148.156 38.0815ZM150.279 31.2997C149.987 31.167 149.801 30.9679 149.695 30.7157C149.589 30.4636 149.602 30.2114 149.709 29.9593C149.828 29.7071 150.014 29.5346 150.279 29.4549C150.531 29.3753 150.81 29.4019 151.089 29.5346C151.381 29.6673 151.58 29.8531 151.686 30.1053C151.792 30.3441 151.779 30.5963 151.659 30.8617C151.54 31.1139 151.354 31.2864 151.089 31.3661C150.837 31.4457 150.558 31.4191 150.266 31.2864" fill="#082970"/>
<path d="M154.396 41.411L152.777 40.4688L155.803 35.1999L157.436 36.129L154.41 41.3978L154.396 41.411ZM157.104 34.8416C156.825 34.6824 156.653 34.47 156.573 34.2046C156.493 33.9392 156.52 33.687 156.653 33.4481C156.799 33.2092 156.998 33.0632 157.263 33.0101C157.529 32.9571 157.794 33.0101 158.073 33.1694C158.351 33.3287 158.524 33.541 158.617 33.7932C158.696 34.0453 158.67 34.2975 158.537 34.5364C158.391 34.7753 158.192 34.9345 157.927 34.9876C157.661 35.0407 157.396 34.9876 157.117 34.8283" fill="#082970"/>
<path d="M163.935 47.9125L158.414 43.8514L159.064 42.9622L166.045 40.8387L162.78 38.4366L163.696 37.1758L168.965 41.0378L168.328 41.9137L161.4 44.1301L164.851 46.6517L163.935 47.9125Z" fill="#082970"/>
<path d="M168.739 52.1074L167.412 50.9395L167.983 50.2892H167.97C167.213 50.5148 166.536 50.3688 165.939 49.838C165.501 49.4531 165.262 49.0151 165.222 48.5506C165.183 48.0729 165.355 47.6349 165.727 47.2102C166.51 46.321 167.479 46.2812 168.646 47.0642L170.027 47.9932C170.465 47.4889 170.412 47.0111 169.867 46.5334C169.323 46.0556 168.66 45.7636 167.89 45.6574L168.819 44.5957C169.098 44.6621 169.456 44.808 169.854 45.0337C170.266 45.2593 170.611 45.4849 170.889 45.7371C172.19 46.8784 172.27 48.0994 171.128 49.4L168.726 52.1339L168.739 52.1074ZM169.045 49.0815L169.31 48.7762L168.381 48.1525C167.877 47.8074 167.465 47.8207 167.147 48.1658C167.001 48.325 166.948 48.4975 166.961 48.7099C166.988 48.909 167.094 49.0948 167.279 49.2673C167.545 49.4929 167.837 49.5991 168.169 49.5593C168.5 49.5195 168.779 49.3602 169.031 49.0815" fill="#082970"/>
<path d="M175.855 53.0373C175.789 52.7852 175.643 52.5595 175.43 52.3472C175.152 52.0552 174.82 51.9358 174.448 51.9889C174.077 52.0419 173.705 52.241 173.333 52.5994L171.263 54.6432L169.949 53.3027L174.276 49.0293L175.59 50.3565L174.78 51.1528H174.793C175.59 50.8077 176.253 50.9006 176.797 51.4447C176.943 51.5907 177.023 51.7102 177.076 51.8296L175.855 53.0373Z" fill="#082970"/>
<path d="M176.756 60.747L173.199 56.6063L173.796 56.1019L178.76 55.8631L176.968 53.7794L178.017 52.877L181.361 56.7655L180.658 57.3627L175.907 57.6282L177.804 59.8445L176.756 60.747Z" fill="#082970"/>
<path d="M178.054 66.4793C177.974 66.4262 177.881 66.3466 177.788 66.2537C177.695 66.1608 177.602 66.0546 177.523 65.9485C177.324 65.683 177.244 65.4043 177.257 65.1389C177.284 64.8735 177.43 64.6346 177.695 64.4355C177.801 64.3559 177.908 64.3028 178.04 64.263C178.173 64.2232 178.319 64.1966 178.465 64.1833C178.624 64.1833 178.784 64.1833 178.943 64.2231C179.115 64.2497 179.275 64.3028 179.447 64.3824L179.991 65.1256C179.62 65.0062 179.314 64.9531 179.049 64.9664C178.784 64.9664 178.584 65.0194 178.452 65.1256C178.346 65.2052 178.279 65.2849 178.266 65.3778C178.266 65.4707 178.279 65.5636 178.346 65.6565C178.385 65.7228 178.438 65.7759 178.505 65.8423C178.558 65.8954 178.624 65.9617 178.691 66.0015L178.027 66.4926L178.054 66.4793ZM180.496 65.8025L179.447 64.3691L180.15 63.8515C179.354 63.9046 178.73 63.6127 178.253 62.9756C177.908 62.4978 177.762 62.0201 177.841 61.5556C177.908 61.0911 178.173 60.6796 178.624 60.3611C179.58 59.671 180.535 59.8303 181.517 60.8522L182.672 62.0599C183.203 61.6617 183.269 61.184 182.845 60.6C182.42 60.0161 181.836 59.5914 181.106 59.3127L182.247 58.4766C182.513 58.6093 182.818 58.8216 183.163 59.1269C183.508 59.4321 183.8 59.7374 184.013 60.0426C185.034 61.4494 184.849 62.6571 183.455 63.6657L180.522 65.8157L180.496 65.8025ZM181.451 62.9225L181.783 62.6836L181.013 61.8741C180.588 61.4228 180.19 61.3432 179.805 61.6219C179.633 61.7414 179.54 61.9139 179.513 62.113C179.487 62.312 179.553 62.5111 179.713 62.7235C179.912 63.0154 180.177 63.1747 180.509 63.2012C180.841 63.2278 181.146 63.1482 181.451 62.9225Z" fill="#082970"/>
<path d="M184.547 72.3333L183.578 70.7274L184.295 70.2895C183.512 70.2364 182.901 69.878 182.477 69.1614C182.092 68.5111 181.999 67.8475 182.225 67.1706C182.45 66.4938 182.968 65.9098 183.791 65.4188C184.653 64.9012 185.476 64.7021 186.259 64.8348C187.042 64.9676 187.639 65.379 188.077 66.0824C188.489 66.7592 188.529 67.3697 188.197 67.9271V67.9537L191.302 66.0956L192.271 67.7015L184.56 72.3333H184.547ZM186.126 69.241L186.525 69.0021C186.87 68.803 187.082 68.5243 187.188 68.1925C187.294 67.8608 187.254 67.5422 187.069 67.2237C186.856 66.8654 186.551 66.6663 186.153 66.6398C185.755 66.6132 185.304 66.7327 184.826 67.0379C184.361 67.3166 184.069 67.6219 183.937 67.9669C183.804 68.312 183.844 68.6571 184.043 68.9888C184.242 69.3206 184.534 69.5064 184.905 69.5462C185.29 69.5993 185.702 69.4932 186.126 69.2277" fill="#082970"/>
<path d="M187.502 78.3052L185.1 73.3947L185.803 73.0497L190.66 74.0716L189.453 71.6031L190.7 71.0059L192.943 75.6111L192.12 76.0092L187.462 75.0802L188.736 77.6947L187.502 78.3052Z" fill="#082970"/>
<path d="M189.841 84.1428L189.19 82.4971L190 82.1786V82.1521C189.204 82.0193 188.673 81.5814 188.381 80.8382C188.168 80.294 188.155 79.7897 188.341 79.3518C188.527 78.9138 188.885 78.5953 189.403 78.3962C190.504 77.9582 191.393 78.3697 192.07 79.5906L192.88 81.0505C193.504 80.8116 193.676 80.3471 193.411 79.6835C193.145 79.0067 192.694 78.4493 192.057 77.9981L193.371 77.4805C193.597 77.6795 193.835 77.9582 194.088 78.3431C194.353 78.728 194.552 79.0996 194.685 79.4447C195.322 81.0505 194.831 82.1786 193.225 82.8156L189.841 84.1428ZM191.486 81.5947L191.871 81.4487L191.327 80.4798C191.035 79.9357 190.664 79.7632 190.226 79.9357C190.026 80.0153 189.894 80.1481 189.814 80.3339C189.735 80.5197 189.748 80.732 189.841 80.9709C189.973 81.3027 190.186 81.5283 190.491 81.6345C190.796 81.7539 191.128 81.7406 191.473 81.6079" fill="#082970"/>
<path d="M192.085 91.4306L191.554 89.6389L194.792 88.6834C195.695 88.4179 196.053 87.9667 195.867 87.3164C195.774 86.9979 195.588 86.7855 195.283 86.6528C194.978 86.5201 194.646 86.5068 194.288 86.613L190.957 87.5951L190.426 85.7902L196.265 84.0781L196.796 85.8831L195.867 86.1485V86.175C196.716 86.4006 197.247 86.9182 197.486 87.7411C197.871 89.0284 197.247 89.9176 195.655 90.3821L192.085 91.4306Z" fill="#082970"/>
<path d="M192.845 94.9086L192.447 93.0772L198.393 91.7765L198.791 93.608L192.859 94.9086H192.845ZM199.521 92.4932C199.455 92.188 199.481 91.9093 199.627 91.6704C199.773 91.4315 199.972 91.2855 200.238 91.2191C200.516 91.1528 200.755 91.2191 200.981 91.3651C201.207 91.5244 201.339 91.7633 201.406 92.0685C201.472 92.387 201.445 92.6525 201.313 92.8914C201.18 93.1303 200.981 93.2762 200.702 93.3293C200.423 93.3957 200.171 93.3426 199.959 93.1833C199.733 93.0241 199.587 92.7985 199.521 92.4799" fill="#082970"/>
<path d="M193.969 101.607L193.704 99.8552L194.566 99.7225V99.696C193.823 99.3907 193.398 98.8466 193.279 98.0636C193.186 97.4796 193.279 96.9886 193.558 96.6037C193.836 96.2188 194.248 95.9799 194.805 95.9003C195.973 95.7145 196.756 96.3117 197.141 97.6654L197.606 99.258C198.256 99.1651 198.535 98.7537 198.428 98.037C198.322 97.3204 198.004 96.6701 197.473 96.0994L198.866 95.887C199.039 96.1259 199.211 96.4577 199.384 96.8957C199.556 97.3336 199.663 97.7318 199.729 98.0901C199.994 99.8021 199.278 100.798 197.566 101.063L193.969 101.62V101.607ZM196.146 99.4836L196.557 99.4173L196.252 98.3423C196.079 97.7583 195.761 97.4929 195.296 97.5725C195.084 97.5991 194.925 97.7052 194.805 97.8778C194.699 98.037 194.659 98.2494 194.699 98.5015C194.752 98.8466 194.911 99.112 195.19 99.2978C195.469 99.4836 195.787 99.5367 196.146 99.4836Z" fill="#082970"/>
<path d="M77.088 186.268L72.297 191.178L70.5849 190.209L71.713 186.387C71.7926 186.135 71.8988 185.87 72.0448 185.604H72.0183C71.8325 185.856 71.6599 186.082 71.5139 186.241L68.7534 189.174L67.0547 188.219L68.8198 181.609L70.4788 182.552L69.072 186.719C69.0056 186.918 68.9127 187.144 68.7933 187.409H68.8198C68.9923 187.17 69.1383 186.971 69.2843 186.812L72.3102 183.587L73.863 184.463L72.5491 188.696C72.5093 188.803 72.4164 189.028 72.2571 189.386L72.297 189.413C72.4429 189.201 72.5889 189.002 72.7482 188.803L75.5618 185.432L77.0747 186.281L77.088 186.268Z" fill="#082970"/>
<path d="M79.2637 194.428L82.555 185.748L85.4482 186.85C86.3374 187.181 86.9479 187.619 87.293 188.163C87.638 188.694 87.6911 189.292 87.439 189.942C87.2664 190.406 86.9612 190.765 86.5365 191.004C86.1118 191.242 85.6473 191.349 85.143 191.309V191.335C85.6738 191.627 86.0322 192.025 86.2312 192.53C86.4303 193.034 86.417 193.565 86.218 194.109C85.9127 194.905 85.4217 195.436 84.7183 195.702C84.0149 195.967 83.2186 195.927 82.3161 195.596L79.2637 194.441V194.428ZM82.4754 191.388L81.6127 193.671L82.5816 194.043C82.993 194.202 83.3646 194.215 83.6698 194.096C83.9883 193.976 84.214 193.738 84.3467 193.366C84.4794 193.021 84.4661 192.702 84.3069 192.424C84.1476 192.132 83.8689 191.919 83.4575 191.76L82.4754 191.388ZM83.8025 187.885L83.0195 189.942L83.8025 190.247C84.1741 190.393 84.5059 190.406 84.7846 190.287C85.0766 190.167 85.2757 189.942 85.4084 189.597C85.6473 188.96 85.3288 188.469 84.4661 188.137L83.7893 187.885H83.8025Z" fill="#082970"/>
<path d="M88.885 197.773L87.0801 197.229L88.9912 190.885L90.7828 191.429L88.885 197.773ZM90.1989 190.155C89.8936 190.062 89.6813 189.89 89.5353 189.638C89.4026 189.386 89.3761 189.12 89.4557 188.828C89.5486 188.536 89.7078 188.324 89.96 188.191C90.2122 188.058 90.4909 188.045 90.7961 188.138C91.1014 188.231 91.327 188.39 91.4597 188.642C91.5924 188.881 91.619 189.16 91.5261 189.452C91.4332 189.744 91.2606 189.969 91.0217 190.102C90.7696 190.235 90.4909 190.261 90.1856 190.169" fill="#082970"/>
<path d="M96.9513 196.967L93.0893 196.064C92.9301 197.02 93.368 197.617 94.3899 197.843C95.0402 197.989 95.6507 197.962 96.2214 197.736L95.8896 199.17C95.2659 199.355 94.5227 199.355 93.6467 199.156C92.6912 198.931 92.0143 198.48 91.6162 197.776C91.218 197.073 91.1384 196.21 91.3906 195.175C91.6427 194.1 92.1205 193.317 92.8372 192.826C93.5538 192.335 94.3236 192.189 95.1597 192.375C96.0223 192.574 96.6196 193.012 96.9646 193.675C97.3097 194.339 97.3628 195.162 97.1504 196.117L96.9513 196.953V196.967ZM95.5446 195.347C95.7569 194.418 95.518 193.874 94.8412 193.715C94.5492 193.649 94.2705 193.715 93.9918 193.941C93.7131 194.153 93.514 194.458 93.368 194.843L95.5446 195.347Z" fill="#082970"/>
<path d="M99.6524 190.215L98.0488 199.891L99.8949 200.197L101.498 190.521L99.6524 190.215Z" fill="#082970"/>
<path d="M101.615 200.31L101.801 198.664C102.08 198.903 102.372 199.089 102.664 199.222C102.956 199.355 103.234 199.434 103.513 199.461C103.845 199.501 104.11 199.474 104.309 199.394C104.508 199.315 104.628 199.182 104.641 198.97C104.654 198.837 104.628 198.731 104.548 198.638C104.469 198.545 104.362 198.452 104.243 198.372C104.11 198.293 103.978 198.213 103.818 198.147C103.659 198.067 103.513 198.001 103.367 197.921C103.141 197.802 102.942 197.669 102.77 197.536C102.597 197.404 102.465 197.258 102.358 197.085C102.252 196.926 102.173 196.74 102.133 196.528C102.093 196.329 102.08 196.09 102.106 195.811C102.146 195.439 102.252 195.134 102.425 194.882C102.611 194.63 102.823 194.444 103.088 194.298C103.354 194.152 103.646 194.059 103.978 194.019C104.309 193.98 104.641 193.966 104.973 194.019C105.238 194.046 105.504 194.099 105.783 194.179C106.061 194.258 106.313 194.351 106.579 194.471L106.406 196.037C106.181 195.864 105.942 195.718 105.69 195.612C105.424 195.506 105.172 195.439 104.907 195.413C104.787 195.4 104.668 195.4 104.562 195.413C104.455 195.413 104.349 195.453 104.27 195.479C104.177 195.519 104.11 195.572 104.057 195.625C104.004 195.692 103.964 195.771 103.964 195.864C103.951 195.984 103.964 196.09 104.031 196.183C104.097 196.276 104.177 196.355 104.283 196.435C104.389 196.514 104.508 196.581 104.641 196.647C104.774 196.714 104.907 196.78 105.039 196.846C105.278 196.966 105.491 197.098 105.676 197.231C105.862 197.364 106.021 197.51 106.154 197.682C106.287 197.842 106.366 198.041 106.433 198.24C106.486 198.452 106.499 198.691 106.473 198.97C106.433 199.368 106.313 199.686 106.128 199.952C105.942 200.204 105.716 200.416 105.437 200.562C105.159 200.708 104.853 200.801 104.508 200.841C104.163 200.881 103.805 200.881 103.447 200.841C102.783 200.761 102.173 200.589 101.642 200.297" fill="#082970"/>
<path d="M114.139 201.333L111.882 201.253L110.051 197.909H110.038L109.918 201.187L108.047 201.134L108.379 191.326L110.25 191.393L110.038 197.63H110.064L111.975 194.631L114.205 194.697L111.922 197.75L114.139 201.333Z" fill="#082970"/>
<path d="M121.48 200.974L119.609 201.08L119.556 200.072H119.529C119.105 200.881 118.507 201.306 117.738 201.346C116.331 201.425 115.574 200.536 115.481 198.678L115.256 194.683L117.127 194.577L117.339 198.386C117.393 199.315 117.751 199.766 118.441 199.727C118.773 199.713 119.038 199.567 119.224 199.302C119.41 199.036 119.489 198.678 119.463 198.24L119.251 194.458L121.122 194.352L121.48 200.974Z" fill="#082970"/>
<path d="M126.542 196.066L123.318 196.49L123.505 197.911L126.729 197.487L126.542 196.066Z" fill="#082970"/>
<path d="M129.647 199.897L127.709 190.82L130.748 190.169C131.677 189.97 132.434 190.01 133.004 190.262C133.588 190.528 133.947 190.992 134.093 191.669C134.199 192.16 134.132 192.625 133.907 193.049C133.681 193.474 133.349 193.819 132.911 194.058V194.084C133.522 194.045 134.053 194.177 134.491 194.496C134.929 194.814 135.207 195.266 135.327 195.836C135.499 196.672 135.38 197.389 134.929 197.986C134.491 198.584 133.801 198.995 132.845 199.194L129.647 199.884V199.897ZM129.899 191.921L130.363 194.071L131.186 193.899C131.571 193.819 131.863 193.647 132.036 193.394C132.208 193.142 132.261 192.837 132.195 192.479C132.049 191.815 131.518 191.576 130.615 191.775L129.912 191.921H129.899ZM130.682 195.597L131.199 197.986L132.221 197.774C132.659 197.681 132.965 197.495 133.164 197.23C133.363 196.964 133.416 196.633 133.336 196.248C133.257 195.889 133.071 195.624 132.792 195.478C132.5 195.319 132.142 195.292 131.717 195.385L130.695 195.611L130.682 195.597Z" fill="#082970"/>
<path d="M136.495 190.369C136.189 190.462 135.911 190.436 135.658 190.29C135.406 190.144 135.234 189.931 135.154 189.653C135.075 189.361 135.101 189.095 135.234 188.843C135.38 188.604 135.592 188.432 135.897 188.352C136.203 188.259 136.481 188.286 136.733 188.418C136.986 188.551 137.145 188.763 137.225 189.055C137.317 189.361 137.291 189.626 137.145 189.878C137.012 190.117 136.787 190.29 136.481 190.382M139.507 197.496L137.702 198.014L135.858 191.657L137.662 191.139L139.507 197.509V197.496Z" fill="#082970"/>
<path d="M146.403 195.133L144.73 195.731L144.412 194.841H144.385C144.253 195.677 143.815 196.235 143.058 196.514C142.501 196.713 142.01 196.699 141.558 196.474C141.12 196.248 140.789 195.85 140.59 195.266C140.152 194.058 140.563 193.129 141.811 192.466L143.284 191.683C143.045 191.006 142.58 190.78 141.903 191.032C141.227 191.271 140.656 191.736 140.191 192.399L139.674 190.953C139.873 190.727 140.165 190.488 140.55 190.223C140.935 189.957 141.306 189.772 141.651 189.652C143.284 189.068 144.412 189.652 145.062 191.431L146.403 195.16V195.133ZM143.828 193.196L143.682 192.771L142.7 193.289C142.156 193.581 141.97 193.965 142.142 194.443C142.222 194.669 142.355 194.815 142.54 194.908C142.726 195.001 142.939 195.001 143.178 194.908C143.509 194.788 143.735 194.563 143.854 194.244C143.974 193.912 143.961 193.567 143.828 193.182" fill="#082970"/>
<path d="M149.021 188.692L148.517 189.528L150.229 193.483L148.517 194.226L147.296 191.426L146.805 192.235L146.141 190.709L146.632 189.913L144.602 185.241L146.314 184.498L147.853 188.002L148.357 187.179L149.021 188.692Z" fill="#082970"/>
<path d="M156.036 187.57L152.519 189.388C153.024 190.211 153.727 190.384 154.656 189.906C155.253 189.601 155.691 189.176 155.983 188.632L156.66 189.946C156.315 190.49 155.744 190.981 154.935 191.392C154.059 191.843 153.249 191.936 152.493 191.644C151.736 191.366 151.113 190.755 150.635 189.813C150.13 188.831 149.984 187.928 150.223 187.092C150.449 186.256 150.94 185.632 151.696 185.247C152.48 184.836 153.223 184.783 153.926 185.075C154.616 185.367 155.187 185.938 155.638 186.814L156.023 187.583L156.036 187.57ZM153.913 187.251C153.475 186.402 152.944 186.15 152.32 186.468C152.055 186.601 151.882 186.84 151.816 187.185C151.75 187.53 151.776 187.888 151.922 188.273L153.913 187.251Z" fill="#082970"/>
<path d="M155.656 182.018C155.39 182.177 155.112 182.23 154.833 182.151C154.554 182.071 154.342 181.912 154.183 181.66C154.023 181.394 153.984 181.129 154.063 180.863C154.13 180.598 154.302 180.372 154.581 180.213C154.86 180.054 155.125 180.001 155.404 180.067C155.682 180.133 155.895 180.293 156.041 180.558C156.2 180.823 156.24 181.089 156.173 181.368C156.107 181.646 155.935 181.859 155.656 182.018ZM160.327 188.03C160.832 188.866 161.044 189.649 160.964 190.379C160.885 191.109 160.5 191.68 159.783 192.104C159.544 192.25 159.252 192.343 158.921 192.396L158.098 191.016C158.403 191.016 158.642 190.963 158.814 190.87C159.319 190.565 159.319 189.981 158.801 189.118L155.377 183.398L156.983 182.443L160.327 188.03Z" fill="#082970"/>
<path d="M100.826 71.2324C100.07 71.4979 99.3397 71.8164 98.623 72.2145V88.804C98.6894 88.4058 98.8221 87.9944 98.9548 87.6361C99.207 86.999 99.7909 85.8842 100.839 84.8756V71.3386C100.839 71.3386 100.839 71.259 100.839 71.2324" fill="#082970"/>
<path d="M127.716 91.1378C127.876 90.8591 128.022 90.6069 128.168 90.3547V86.3733C127.517 86.2273 126.774 85.9751 125.951 85.6035V94.2964L127.73 91.1378H127.716Z" fill="#082970"/>
<path d="M125.951 118.023C126.747 118.899 127.477 119.828 128.168 120.77V96.7617C127.398 98.1287 126.655 99.4426 125.951 100.703V118.023Z" fill="#082970"/>
<path d="M99.3576 65.7223C98.1499 63.9837 95.8672 62.9884 92.5361 62.7229L88.5148 62.4044V54.0831H138.283V62.4044L134.395 62.7229C131.05 62.9884 128.754 64.0103 127.507 65.7887C126.777 66.8371 126.259 68.788 125.954 71.5883V78.3568C126.777 79.1133 127.507 79.6973 128.17 80.175V71.7078C128.529 68.4828 129.086 67.3812 129.312 67.0627C130.161 65.855 131.926 65.1384 134.554 64.926L138.442 64.6075C139.597 64.5146 140.486 63.5458 140.486 62.3911V54.0699C140.486 52.8489 139.491 51.8535 138.27 51.8535H88.5015C87.2805 51.8535 86.2852 52.8489 86.2852 54.0699V62.3911C86.2852 63.5458 87.1743 64.5146 88.329 64.6075L92.3503 64.9127C94.978 65.1118 96.7166 65.8152 97.5262 66.9698C97.6854 67.1954 98.004 67.8325 98.3092 69.3853C98.986 69.0402 99.6762 68.735 100.393 68.4695C100.114 67.222 99.7691 66.293 99.3576 65.6958" fill="#082970"/>
<path d="M100.841 103.518V88.8398L99.5138 90.9102L98.7839 89.9679C98.691 89.8485 98.6379 89.7158 98.6113 89.5565V103.492C99.3413 103.585 100.084 103.598 100.828 103.518" fill="#082970"/>
<path d="M100.839 111.893C100.096 111.919 99.353 111.985 98.623 112.065V130.99C99.3663 131.216 100.096 131.455 100.839 131.734V111.906V111.893Z" fill="#082970"/>
<path d="M128.168 128.217V127.594C127.637 126.744 126.867 125.722 125.951 124.607V130.792C126.628 129.876 127.371 129.014 128.168 128.217Z" fill="#082970"/>
<path d="M125.951 146.718V147.66C126.681 147.873 127.424 148.032 128.168 148.151V145.922C127.451 146.386 126.694 146.652 125.951 146.718Z" fill="#082970"/>
<path d="M127.469 157.139C128.703 158.93 130.999 159.952 134.397 160.204L138.286 160.589V168.831H88.5171V160.589L92.6048 160.204C95.8961 159.952 98.1523 158.943 99.36 157.205C100.063 156.196 100.554 154.298 100.846 151.551V141.398C100.103 142.075 99.36 142.739 98.6301 143.376V151.432C98.285 154.59 97.7541 155.639 97.5418 155.944C96.7322 157.099 95.0202 157.789 92.4322 157.988L88.3048 158.386C87.1634 158.492 86.3008 159.448 86.3008 160.589V168.831C86.3008 170.065 87.2961 171.047 88.5171 171.047H138.286C139.506 171.047 140.502 170.052 140.502 168.831V160.589C140.502 159.448 139.639 158.492 138.498 158.386L134.609 158.001C131.889 157.789 130.123 157.085 129.301 155.878C129.155 155.652 128.836 155.042 128.544 153.622C127.761 153.595 126.991 153.515 126.235 153.409C126.527 155.108 126.938 156.369 127.469 157.139Z" fill="#082970"/>
<path d="M98.6113 138.324C99.0493 137.912 99.4872 137.514 99.9252 137.089C99.5138 136.89 99.0758 136.691 98.6113 136.492V138.324Z" fill="#082970"/>
<path d="M125.951 135.482V144.095C126.655 144.095 127.424 143.683 128.168 142.94V132.084C127.265 133.252 126.522 134.367 125.951 135.482Z" fill="#082970"/>
<path d="M100.839 106.307C100.096 106.373 99.353 106.4 98.623 106.333V108.895C99.3132 108.682 100.056 108.523 100.839 108.39V106.307Z" fill="#082970"/>
<path d="M155.591 125.88C154.822 120.492 150.933 117.638 145.452 118.408C143.846 118.634 140.555 119.417 136.215 122.098V122.071L135.737 122.39C134.118 123.425 132.499 124.633 130.906 125.986C128.172 120.625 124.31 116.192 119.121 112.476L119.692 111.401C122.452 106.185 125.584 100.279 129.911 92.9002L130.322 92.2101C132.26 89.0249 132.87 88.0163 134.556 85.6938C140.687 84.3799 144.496 82.3626 148.531 78.2617C151.291 75.5145 152.764 72.6478 152.473 70.5907C152.234 68.8654 151.013 67.9497 149.314 68.2019C146.009 68.6796 139.825 74.4793 133.879 82.6944C129.858 82.1105 128.199 81.3274 123.182 76.2577C118.643 71.533 113.096 66.596 104.695 67.8037C93.1619 69.4494 84.5221 81.1814 86.2076 92.9135C87.3888 101.208 94.0776 106.875 101.417 105.827C104.814 105.349 108.053 103.398 110.282 100.505C112.512 97.5984 113.52 94.0283 113.056 90.6972C112.684 88.1225 111.424 85.8796 109.592 84.5392C108.159 83.4907 106.5 83.0793 104.814 83.358C101.218 83.9685 99.7977 86.6361 99.3464 87.7641C99.2137 88.1092 98.789 89.2638 99.1208 89.7018L99.4792 90.1796L100.607 88.4145C101.855 86.7157 103.062 85.8265 104.496 85.5611C105.531 85.362 106.566 85.6009 107.482 86.2512C108.929 87.2864 109.95 89.2373 110.295 91.5864C111.171 97.7311 107.336 103.013 101.35 103.876C95.1659 104.752 89.7378 100.027 88.7159 92.8604C87.9993 87.8305 89.1937 82.4423 91.9807 78.0494C94.781 73.6565 98.8819 70.7898 103.222 70.1661C107.615 69.5423 111.45 71.1481 114.994 75.0765L118.895 79.4827C124.921 86.1981 129.101 86.3441 131.371 86.145C129.99 88.0428 129.407 89.0382 128.093 91.3342L120.501 104.858L117.024 111.334C107.482 106.782 97.4751 108.362 94.7147 111.52L93.8653 112.489L95.1261 112.197C102.014 110.618 109.313 111.48 115.233 114.573C110.216 123.889 106.818 129.371 103.593 133.286C96.4931 130.074 89.3264 128.972 82.2792 129.968C65.0129 132.436 52.0599 142.124 53.4136 151.547C54.0771 156.139 58.125 158.833 64.0574 158.833C65.0527 158.833 66.1144 158.754 67.216 158.594C80.0496 156.763 89.8838 151.282 103.421 138.435C104.522 139.006 105.969 140.373 107.761 142.058C112.791 146.809 120.395 153.976 131.026 153.166C138.537 152.091 144.762 148.322 150.084 141.633C154.277 136.418 156.281 130.684 155.591 125.88ZM131.331 136.922C131.092 138.953 130.296 140.97 129.154 142.456C128.053 143.89 126.805 144.633 125.69 144.5C124.961 144.42 124.496 144.089 124.217 143.465C123.912 142.775 123.832 141.726 123.992 140.346C124.416 136.803 126.195 133.458 129.752 129.57C131.105 132.41 131.596 134.692 131.331 136.922ZM122.253 141.063C122.081 142.456 122.253 143.677 122.731 144.593C123.249 145.575 124.085 146.159 125.146 146.292C126.898 146.491 128.703 145.442 130.203 143.306C131.649 141.249 132.645 138.448 133.016 135.422C133.415 132.065 132.353 129.45 131.782 128.043C131.742 127.964 131.716 127.871 131.689 127.804C136.294 123.823 141.006 121.315 144.974 120.744C149.725 120.067 152.711 122.363 153.402 127.207C154.37 134.002 146.248 147.128 136.228 148.561C129.154 149.477 124.456 148.468 118.895 144.805C117.25 143.903 115.219 142.098 113.056 140.174C110.508 137.904 107.88 135.568 105.412 134.254C106.885 132.118 113.998 121.726 117.409 115.528C120.448 117.678 127.257 124.898 128.902 128.057C125.239 131.52 122.811 136.245 122.24 141.076M136.693 82.6413C140.395 76.5497 145.797 71.188 148.717 70.7633C148.796 70.7633 148.876 70.75 148.956 70.75C149.194 70.75 149.394 70.8031 149.553 70.9093C149.778 71.0685 149.911 71.3207 149.964 71.679C150.19 73.2185 148.557 75.7003 145.717 78.129C142.944 80.4913 139.745 82.2299 137.542 82.5484C137.33 82.575 137.051 82.6148 136.706 82.6413M100.621 137.002C89.3264 148.004 79.3727 153.817 69.2996 155.25C61.4694 156.365 57.5277 154.772 56.8774 150.22C55.8821 143.239 66.1675 135.037 78.0323 133.339C79.3064 133.153 80.7132 133.073 82.1863 133.073C88.5567 133.073 96.3073 134.653 100.607 137.002" fill="#082970"/>
</svg>
