<svg width="633" height="168" viewBox="0 0 633 168" fill="none"
    xmlns="http://www.w3.org/2000/svg">
    <circle cx="135.673" cy="84.0618" r="75.0618" fill="#FFC106"/>
    <path d="M558.883 109.741L543.271 62.6367H552.356L566.285 105.232H561.777L576.244 62.6367H584.319L598.383 105.232H594.009L608.275 62.6367H616.619L601.008 109.741H591.721L578.869 71.3173H581.291L568.237 109.741H558.883Z" fill="#082970"/>
    <path d="M514.653 110.414C510.974 110.414 507.587 109.808 504.492 108.597C501.397 107.385 498.705 105.703 496.417 103.55C494.129 101.352 492.357 98.7946 491.101 95.8786C489.845 92.9178 489.217 89.6878 489.217 86.1886C489.217 82.6895 489.845 79.4819 491.101 76.5659C492.357 73.6051 494.129 71.048 496.417 68.8947C498.705 66.6965 501.397 64.9918 504.492 63.7805C507.587 62.5693 510.952 61.9637 514.586 61.9637C518.264 61.9637 521.629 62.5693 524.679 63.7805C527.775 64.9918 530.467 66.6965 532.754 68.8947C535.042 71.048 536.814 73.6051 538.07 76.5659C539.327 79.4819 539.955 82.6895 539.955 86.1886C539.955 89.6878 539.327 92.9178 538.07 95.8786C536.814 98.8394 535.042 101.397 532.754 103.55C530.467 105.703 527.775 107.385 524.679 108.597C521.629 109.808 518.287 110.414 514.653 110.414ZM514.586 102.742C516.963 102.742 519.162 102.339 521.18 101.531C523.199 100.724 524.949 99.5796 526.429 98.0992C527.909 96.574 529.053 94.8244 529.861 92.8505C530.713 90.8317 531.139 88.6111 531.139 86.1886C531.139 83.7661 530.713 81.5679 529.861 79.5941C529.053 77.5753 527.909 75.8257 526.429 74.3453C524.949 72.82 523.199 71.6537 521.18 70.8462C519.162 70.0387 516.963 69.6349 514.586 69.6349C512.208 69.6349 510.01 70.0387 507.991 70.8462C506.017 71.6537 504.268 72.82 502.742 74.3453C501.262 75.8257 500.096 77.5753 499.243 79.5941C498.436 81.5679 498.032 83.7661 498.032 86.1886C498.032 88.5663 498.436 90.7645 499.243 92.7832C500.096 94.8019 501.262 96.574 502.742 98.0992C504.223 99.5796 505.972 100.724 507.991 101.531C510.01 102.339 512.208 102.742 514.586 102.742ZM508.933 58.801L518.018 49.582H527.909L516.201 58.801H508.933Z" fill="#082970"/>
    <path d="M464.863 110.413C461.185 110.413 457.663 109.897 454.299 108.865C450.934 107.788 448.265 106.42 446.291 104.76L449.319 97.9639C451.203 99.4443 453.536 100.678 456.317 101.665C459.099 102.652 461.948 103.145 464.863 103.145C467.331 103.145 469.327 102.876 470.852 102.338C472.378 101.799 473.499 101.082 474.217 100.184C474.935 99.2424 475.294 98.1882 475.294 97.0218C475.294 95.5862 474.778 94.4423 473.746 93.5899C472.714 92.6927 471.368 91.9973 469.708 91.5039C468.093 90.9655 466.277 90.4721 464.258 90.0235C462.284 89.5749 460.288 89.059 458.269 88.4758C456.295 87.8477 454.478 87.0626 452.818 86.1206C451.203 85.1336 449.88 83.8326 448.848 82.2176C447.816 80.6026 447.3 78.539 447.3 76.0268C447.3 73.4697 447.973 71.137 449.319 69.0285C450.71 66.8752 452.796 65.1705 455.577 63.9143C458.404 62.6134 461.97 61.9629 466.277 61.9629C469.103 61.9629 471.907 62.3218 474.688 63.0396C477.469 63.7573 479.892 64.7891 481.956 66.135L479.197 72.9314C477.088 71.6753 474.912 70.7557 472.669 70.1725C470.426 69.5444 468.273 69.2304 466.209 69.2304C463.787 69.2304 461.813 69.522 460.288 70.1052C458.807 70.6884 457.708 71.451 456.99 72.3931C456.317 73.3352 455.981 74.4118 455.981 75.6231C455.981 77.0586 456.474 78.225 457.461 79.1222C458.493 79.9746 459.817 80.6475 461.432 81.141C463.091 81.6345 464.931 82.1279 466.95 82.6214C468.968 83.07 470.965 83.5859 472.938 84.1691C474.957 84.7523 476.774 85.5149 478.389 86.457C480.049 87.3991 481.372 88.6776 482.359 90.2926C483.391 91.9076 483.907 93.9488 483.907 96.4162C483.907 98.9284 483.212 101.261 481.821 103.414C480.475 105.523 478.389 107.228 475.563 108.529C472.737 109.785 469.17 110.413 464.863 110.413Z" fill="#082970"/>
    <path d="M401.041 109.741V62.6367H420.421C424.593 62.6367 428.16 63.3096 431.12 64.6555C434.126 66.0013 436.436 67.9303 438.051 70.4425C439.666 72.9548 440.474 75.938 440.474 79.3923C440.474 82.8466 439.666 85.8299 438.051 88.3421C436.436 90.8094 434.126 92.716 431.12 94.0619C428.16 95.3628 424.593 96.0133 420.421 96.0133H405.886L409.789 92.0431V109.741H401.041ZM431.861 109.741L419.95 92.6487H429.303L441.281 109.741H431.861ZM409.789 92.9852L405.886 88.8131H420.017C423.875 88.8131 426.769 87.9832 428.698 86.3233C430.672 84.6635 431.659 82.3531 431.659 79.3923C431.659 76.3866 430.672 74.0763 428.698 72.4613C426.769 70.8463 423.875 70.0388 420.017 70.0388H405.886L409.789 65.7321V92.9852Z" fill="#082970"/>
    <path d="M368.198 110.414C361.738 110.414 356.668 108.597 352.99 104.963C349.356 101.329 347.539 96.0806 347.539 89.2169V62.6367H356.287V88.8804C356.287 93.7254 357.319 97.247 359.382 99.4452C361.491 101.643 364.452 102.742 368.265 102.742C372.078 102.742 375.016 101.643 377.08 99.4452C379.144 97.247 380.175 93.7254 380.175 88.8804V62.6367H388.789V89.2169C388.789 96.0806 386.949 101.329 383.271 104.963C379.637 108.597 374.613 110.414 368.198 110.414Z" fill="#082970"/>
    <path d="M307.384 98.6377L306.913 88.2748L331.609 62.6367H341.433L320.91 84.4392L316.065 89.7552L307.384 98.6377ZM299.578 109.741V62.6367H308.326V109.741H299.578ZM332.416 109.741L314.382 88.2748L320.169 81.8821L342.645 109.741H332.416Z" fill="#082970"/>
    <path d="M223.916 109.741L245.113 62.6367H253.726L274.99 109.741H265.839L247.603 67.2798H251.102L232.933 109.741H223.916ZM233.673 98.8396L236.028 91.9758H261.465L263.82 98.8396H233.673Z" fill="#082970"/>
    <path d="M197.777 84.3046H221.262V91.7067H197.777V84.3046ZM198.517 109.741H189.77V62.6367H224.156V69.9715H198.517V109.741Z" fill="#082970"/>
    <path d="M152.764 82.2186H176.182V89.4188H152.764V82.2186ZM153.437 102.406H180.018V109.741H144.689V62.6367H179.075V69.9715H153.437V102.406Z" fill="#082970"/>
    <path d="M95.4688 109.741V62.6367H114.849C119.021 62.6367 122.587 63.3096 125.548 64.6555C128.554 66.0013 130.864 67.9303 132.479 70.4425C134.094 72.9548 134.902 75.938 134.902 79.3923C134.902 82.8466 134.094 85.8299 132.479 88.3421C130.864 90.8094 128.554 92.716 125.548 94.0619C122.587 95.3628 119.021 96.0133 114.849 96.0133H100.314L104.217 92.0431V109.741H95.4688ZM126.288 109.741L114.378 92.6487H123.731L135.709 109.741H126.288ZM104.217 92.9852L100.314 88.8131H114.445C118.303 88.8131 121.197 87.9832 123.126 86.3233C125.099 84.6635 126.086 82.3531 126.086 79.3923C126.086 76.3866 125.099 74.0763 123.126 72.4613C121.197 70.8463 118.303 70.0388 114.445 70.0388H100.314L104.217 65.7321V92.9852Z" fill="#082970"/>
    <path d="M64.5433 109.741V70.0388H48.9316V62.6367H88.9028V70.0388H73.2912V109.741H64.5433Z" fill="#082970"/>
    <path d="M27.9279 110.413C24.2493 110.413 20.7277 109.897 17.3632 108.865C13.9986 107.788 11.3294 106.42 9.35547 104.76L12.3836 97.9639C14.2678 99.4443 16.6005 100.678 19.3819 101.665C22.1633 102.652 25.012 103.145 27.9279 103.145C30.3953 103.145 32.3916 102.876 33.9169 102.338C35.4422 101.799 36.5637 101.082 37.2815 100.184C37.9992 99.2424 38.3581 98.1882 38.3581 97.0218C38.3581 95.5862 37.8422 94.4423 36.8104 93.5899C35.7786 92.6927 34.4328 91.9973 32.7729 91.5039C31.1579 90.9655 29.3411 90.4721 27.3223 90.0235C25.3484 89.5749 23.3521 89.059 21.3334 88.4758C19.3595 87.8477 17.5426 87.0626 15.8827 86.1206C14.2678 85.1336 12.9444 83.8326 11.9125 82.2176C10.8807 80.6026 10.3648 78.539 10.3648 76.0268C10.3648 73.4697 11.0378 71.137 12.3836 69.0285C13.7743 66.8752 15.8603 65.1705 18.6417 63.9143C21.4679 62.6134 25.0344 61.9629 29.3411 61.9629C32.1673 61.9629 34.9711 62.3218 37.7525 63.0396C40.5339 63.7573 42.9564 64.7891 45.02 66.135L42.261 72.9314C40.1526 71.6753 37.9768 70.7557 35.7338 70.1725C33.4907 69.5444 31.3374 69.2304 29.2738 69.2304C26.8513 69.2304 24.8774 69.522 23.3521 70.1052C21.8717 70.6884 20.7726 71.451 20.0548 72.3931C19.3819 73.3352 19.0455 74.4118 19.0455 75.6231C19.0455 77.0586 19.5389 78.225 20.5259 79.1222C21.5577 79.9746 22.8811 80.6475 24.4961 81.141C26.1559 81.6345 27.9952 82.1279 30.014 82.6214C32.0327 83.07 34.029 83.5859 36.0029 84.1691C38.0217 84.7523 39.8385 85.5149 41.4535 86.457C43.1134 87.3991 44.4368 88.6776 45.4237 90.2926C46.4555 91.9076 46.9714 93.9488 46.9714 96.4162C46.9714 98.9284 46.2761 101.261 44.8854 103.414C43.5396 105.523 41.4535 107.228 38.6273 108.529C35.801 109.785 32.2346 110.413 27.9279 110.413Z" fill="#082970"/>
</svg>
